<?xml version="1.0" encoding="UTF-8"?>
<svg width="88px" height="69px" viewBox="0 0 88 69" version="1.1" xmlns="http://www.w3.org/2000/svg" xmlns:xlink="http://www.w3.org/1999/xlink">
    <!-- Generator: Sketch 51.3 (57544) - http://www.bohemiancoding.com/sketch -->
    <title>Group 6</title>
    <desc>Created with Sketch.</desc>
    <defs></defs>
    <g id="home-03" stroke="none" stroke-width="1" fill="none" fill-rule="evenodd">
        <g id="home_03_fix" transform="translate(-1407.000000, -5501.000000)" fill="#E12454">
            <g id="Group-17" transform="translate(960.000000, 5501.000000)">
                <g id="Group-6" transform="translate(447.000000, 0.000000)">
                    <path d="M0,38.5888889 C0,27.0036458 3.09674323,17.6759613 9.29032258,10.6055556 C15.4839019,3.53514983 24.5160697,0 36.3870968,0 L36.3870968,16.1 C27.2687716,16.1 22.7096774,21.8925347 22.7096774,33.4777778 L22.7096774,37.3111111 L39.2258065,37.3111111 L39.2258065,69 L5.41935484,69 C1.80643355,58.7777267 0,48.640791 0,38.5888889 Z M49.0322581,38.5888889 C49.0322581,27.0036458 52.085991,17.6759613 58.1935484,10.6055556 C64.3011058,3.53514983 73.2902632,0 85.1612903,0 L85.1612903,16.1 C76.215009,16.1 71.7419355,21.8925347 71.7419355,33.4777778 L71.7419355,37.3111111 L88,37.3111111 L88,69 L54.1935484,69 C50.752671,58.6073554 49.0322581,48.4704198 49.0322581,38.5888889 Z" id="“" transform="translate(44.000000, 34.500000) rotate(-180.000000) translate(-44.000000, -34.500000) "></path>
                </g>
            </g>
        </g>
    </g>
</svg>